<?xml version="1.0" encoding="UTF-8" standalone="no"?>
<svg
   width="45.656166mm"
   height="11.405068mm"
   viewBox="0 0 45.656167 11.405069"
   version="1.1"
   id="svg8"
   xml:space="preserve"
   sodipodi:docname="logo.svg"
   inkscape:version="1.3 (0e150ed6c4, 2023-07-21)"
   xmlns:inkscape="http://www.inkscape.org/namespaces/inkscape"
   xmlns:sodipodi="http://sodipodi.sourceforge.net/DTD/sodipodi-0.dtd"
   xmlns="http://www.w3.org/2000/svg"
   xmlns:svg="http://www.w3.org/2000/svg"
   xmlns:rdf="http://www.w3.org/1999/02/22-rdf-syntax-ns#"
   xmlns:cc="http://creativecommons.org/ns#"
   xmlns:dc="http://purl.org/dc/elements/1.1/"><sodipodi:namedview
     id="namedview1"
     pagecolor="#ffffff"
     bordercolor="#666666"
     borderopacity="1.0"
     inkscape:showpageshadow="2"
     inkscape:pageopacity="0.0"
     inkscape:pagecheckerboard="0"
     inkscape:deskcolor="#d1d1d1"
     inkscape:document-units="mm"
     inkscape:zoom="5.6568542"
     inkscape:cx="77.516582"
     inkscape:cy="41.100582"
     inkscape:window-width="1920"
     inkscape:window-height="1009"
     inkscape:window-x="984"
     inkscape:window-y="1081"
     inkscape:window-maximized="1"
     inkscape:current-layer="g4" /><defs
     id="defs2" /><metadata
     id="metadata5"><rdf:RDF><cc:Work
         rdf:about=""><dc:format>image/svg+xml</dc:format><dc:type
           rdf:resource="http://purl.org/dc/dcmitype/StillImage" /></cc:Work></rdf:RDF></metadata><path
     d="m 31.707391,3.9252733 h 2.145718 q 0.701,0 1.048641,0.3333984 0.350494,0.3333998 0.350494,0.9489043 0,0.6326029 -0.381838,0.9887987 -0.378996,0.3561958 -1.159778,0.3561958 H 33.00393 V 8.1027347 H 31.707391 Z M 33.00393,5.706251 h 0.316307 q 0.373298,0 0.52432,-0.1282321 0.151033,-0.1310821 0.151033,-0.3333996 0,-0.1966206 -0.131041,-0.3333986 -0.131043,-0.1367811 -0.492966,-0.1367811 h -0.367609 z m 5.642144,-1.7809777 h 1.287998 v 2.4905181 q 0,0.370444 -0.11686,0.7009935 -0.113965,0.3276996 -0.36189,0.5756114 -0.245066,0.2450631 -0.515757,0.3447967 -0.376152,0.1396301 -0.903316,0.1396301 -0.304909,0 -0.666801,-0.04274 Q 37.010394,8.0913431 36.768182,7.9659593 36.525971,7.837727 36.323644,7.6040639 36.124183,7.3704001 36.050098,7.1224872 35.930342,6.7235491 35.930342,6.4157958 V 3.9252776 h 1.287998 v 2.5503596 q 0,0.3419477 0.188076,0.5357182 0.190919,0.1909194 0.527164,0.1909194 0.333401,0 0.521475,-0.1880704 0.190921,-0.1909205 0.190921,-0.5385672 z m 4.924051,2.470572 1.131266,0.3419466 q -0.113965,0.4758777 -0.359036,0.7950292 -0.245067,0.3191509 -0.609812,0.4815764 -0.361901,0.1624256 -0.923251,0.1624256 -0.681052,0 -1.114184,-0.1966212 -0.430287,-0.1994689 -0.74374,-0.6981427 -0.313452,-0.4986727 -0.313452,-1.2766038 0,-1.0372421 0.549977,-1.5929075 0.55281,-0.5585132 1.561553,-0.5585132 0.789334,0 1.239571,0.3191504 0.453079,0.3191504 0.672489,0.9802507 l -1.13983,0.2536108 Q 43.461798,5.2161263 43.396278,5.1277895 43.287944,4.9796113 43.131274,4.8998248 q -0.156721,-0.079782 -0.350506,-0.079782 -0.438827,0 -0.672488,0.3533457 -0.176669,0.2621601 -0.176669,0.8235234 0,0.6952946 0.210856,0.9546044 0.210869,0.2564611 0.592719,0.2564611 0.370431,0 0.558518,-0.2080187 0.190908,-0.2080186 0.27641,-0.6041065 z"
     id="text2-3"
     style="font-weight:900;font-size:4.23975px;line-height:1.25;font-family:Arial;-inkscape-font-specification:'Arial, Heavy';stroke-width:0.145898;fill:#666666"
     aria-label="PUC" /><g
     id="g4"
     transform="matrix(1.3543686,0,0,1.3543686,-0.74486708,-0.37940169)"
     style="fill:#7655ed;fill-opacity:1"><path
       d="M 0.70201854,2.3142513 1.0423472,2.2844958 c 0.016117,0.1363795 0.053312,0.2485826 0.1115832,0.3366093 0.059511,0.086787 0.1512571,0.1574562 0.2752385,0.2120079 0.1239812,0.053312 0.2634602,0.079968 0.4184368,0.079968 0.1376193,0 0.259121,-0.020457 0.364505,-0.061371 0.1053842,-0.040914 0.1834924,-0.096706 0.2343247,-0.1673748 0.052072,-0.071909 0.078108,-0.1500173 0.078108,-0.2343246 0,-0.085547 -0.024796,-0.1599359 -0.074389,-0.2231664 C 2.4005623,2.162374 2.3187347,2.1084424 2.2046719,2.0650489 2.131523,2.0365332 1.9697273,1.9925198 1.7192852,1.9330088 1.4688429,1.872258 1.2934093,1.8152266 1.1929845,1.7619146 1.0628041,1.6937249 0.96547881,1.6094177 0.90100852,1.5089928 0.83777807,1.407328 0.80616283,1.2938852 0.80616283,1.1686641 c 0,-0.1376193 0.0390541,-0.26593989 0.11716233,-0.38496194 C 1.0014334,0.6634403 1.1154962,0.57231403 1.2655136,0.51032339 c 0.1500173,-0.0619906 0.3167722,-0.092986 0.5002645,-0.092986 0.2020895,0 0.3800027,0.0328551 0.5337395,0.0985651 0.1549766,0.0644703 0.2739987,0.15993587 0.3570661,0.2863968 C 2.7396507,0.9287602 2.7842845,1.0719586 2.7904836,1.2318945 L 2.4445757,1.2579306 C 2.4259785,1.0855967 2.3627481,0.95541626 2.2548844,0.86738953 2.1482604,0.77936281 1.9901842,0.73534945 1.7806558,0.73534945 c -0.218207,0 -0.377523,0.0402939 -0.4779478,0.12088176 -0.099185,0.079348 -0.1487776,0.17543349 -0.1487776,0.28825659 0,0.097945 0.035335,0.178533 0.106004,0.2417635 0.06943,0.06323 0.2504422,0.1283207 0.5430381,0.1952706 0.2938356,0.06571 0.4953053,0.1233613 0.6044088,0.1729538 0.1586961,0.073149 0.2758585,0.166135 0.3514871,0.278958 0.075629,0.1115832 0.1134428,0.2405237 0.1134428,0.3868216 0,0.1450582 -0.041534,0.2820575 -0.1246012,0.4109981 C 2.6646425,2.958954 2.5450005,3.058759 2.3887842,3.1306682 2.2338076,3.2013375 2.0589939,3.2366722 1.8643432,3.2366722 1.6176204,3.2366722 1.4105716,3.2007176 1.243197,3.1288085 1.077062,3.0568994 0.94626172,2.9490356 0.8507961,2.8052172 0.75657031,2.6601592 0.70697779,2.4965038 0.70201854,2.3142513 Z M 3.324223,0.84879234 V 0.4638304 H 3.6589725 V 0.84879234 Z M 4.0346359,2.6006481 4.365666,2.548576 c 0.018597,0.1326599 0.070049,0.2343247 0.1543567,0.304994 0.085547,0.070669 0.2045691,0.106004 0.3570661,0.106004 0.1537368,0 0.2677996,-0.030995 0.3421883,-0.092986 0.074389,-0.06323 0.1115832,-0.1369995 0.1115832,-0.2213067 0,-0.075629 -0.032855,-0.1351396 -0.098565,-0.178533 C 5.1864222,2.436993 5.0723593,2.3991785 4.8901068,2.3533054 4.6446239,2.2913148 4.4741496,2.2380028 4.3786839,2.1933695 4.2844582,2.1474965 4.212549,2.084886 4.1629565,2.0055379 4.1146038,1.92495 4.0904274,1.8363034 4.0904274,1.739598 c 0,-0.088027 0.019837,-0.1692345 0.059511,-0.2436233 0.040914,-0.075629 0.096086,-0.1382391 0.165515,-0.1878317 0.052072,-0.038435 0.1227416,-0.07067 0.2120081,-0.096705 0.090506,-0.027276 0.1872117,-0.040913 0.2901162,-0.040913 0.1549766,0 0.2907361,0.022317 0.4072785,0.06695 0.1177823,0.044633 0.2045693,0.1053839 0.2603607,0.1822525 0.055792,0.075629 0.094226,0.1772933 0.1153027,0.304994 L 5.2732091,1.7693535 C 5.2583314,1.6676888 5.2149379,1.5883408 5.1430287,1.5313094 5.0723593,1.474278 4.9719345,1.4457623 4.8417542,1.4457623 c -0.1537369,0 -0.2634604,0.025416 -0.3291704,0.076248 -0.06571,0.050833 -0.098565,0.1103432 -0.098565,0.1785331 0,0.043394 0.013637,0.082448 0.040913,0.1171623 0.027276,0.035954 0.070049,0.06571 0.1283206,0.089266 0.033475,0.012399 0.1320399,0.040914 0.2956954,0.085547 0.2368044,0.06323 0.4016995,0.1153027 0.4946855,0.1562165 0.094225,0.039674 0.1679946,0.097945 0.2213066,0.1748137 0.053312,0.076869 0.079968,0.1723339 0.079968,0.2863967 0,0.1115832 -0.032855,0.2169674 -0.098565,0.3161524 -0.06447,0.097945 -0.1580762,0.1741937 -0.2808177,0.2287454 -0.1227415,0.053312 -0.2616006,0.079968 -0.4165771,0.079968 -0.2566413,0 -0.4525317,-0.053312 -0.5876714,-0.1599359 C 4.157377,2.9682524 4.0718303,2.8101765 4.0346359,2.6006481 Z m 2.7691222,0.2901163 0.048353,0.2956954 c -0.094226,0.019837 -0.178533,0.029755 -0.2529218,0.029755 -0.1215017,0 -0.2157275,-0.019217 -0.2826774,-0.057652 C 6.2495618,3.1201296 6.2024488,3.0699173 6.175173,3.0079267 6.147897,2.9446962 6.1342591,2.8126561 6.1342591,2.6118064 V 1.4755178 H 5.8887761 V 1.2151571 h 0.245483 V 0.72605085 L 6.4671489,0.52520114 V 1.2151571 H 6.8037581 V 1.4755178 H 6.4671489 v 1.1548858 c 0,0.095465 0.00558,0.1568364 0.016737,0.1841123 0.012399,0.027276 0.031616,0.048972 0.057652,0.06509 0.027276,0.016117 0.06571,0.024176 0.1153026,0.024176 0.037194,0 0.086167,-0.00433 0.1469176,-0.013017 z M 8.4830852,2.5541551 8.828993,2.5969287 C 8.7744411,2.7990182 8.6733964,2.9558545 8.5258587,3.0674377 8.3783209,3.1790209 8.1898694,3.2348125 7.9605039,3.2348125 7.6716275,3.2348125 7.4422622,3.1461655 7.2724078,2.9688726 7.1037931,2.7903395 7.0194859,2.5405172 7.0194859,2.2194056 c 0,-0.3322699 0.085547,-0.590151 0.2566413,-0.7736433 C 7.4472214,1.26227 7.669148,1.1705238 7.9419068,1.1705238 c 0.2640802,0 0.4798076,0.089887 0.6471824,0.2696593 0.1673747,0.1797729 0.2510621,0.4326947 0.2510621,0.7587656 0,0.019837 -6.197e-4,0.049593 -0.00186,0.089266 H 7.3653937 c 0.012399,0.2169672 0.073769,0.3831022 0.1841123,0.4984048 0.1103433,0.1153026 0.2479626,0.1729539 0.4128577,0.1729539 0.1227415,0 0.2275057,-0.032235 0.3142926,-0.096705 0.086787,-0.06447 0.1555966,-0.1673747 0.2064289,-0.3087133 z M 7.383991,2.0129768 H 8.4868046 C 8.4719269,1.8468419 8.4297732,1.7222406 8.3603437,1.6391731 8.2537198,1.5102326 8.1154806,1.4457623 7.9456262,1.4457623 7.7918894,1.4457623 7.662329,1.4972142 7.5569448,1.600119 7.4528005,1.7030235 7.3951492,1.8406427 7.383991,2.0129768 Z M 9.2492891,3.1901792 V 1.2151571 H 9.5487038 V 1.4922553 C 9.6106943,1.3955498 9.693142,1.3180616 9.7960468,1.2597904 9.8989516,1.2002795 10.016113,1.170524 10.147534,1.170524 c 0.146297,0 0.26594,0.030376 0.358925,0.091127 0.09423,0.060751 0.160556,0.1456782 0.198991,0.2547816 0.156216,-0.2306052 0.359546,-0.3459078 0.609988,-0.3459078 0.19589,0 0.346527,0.054552 0.451911,0.1636553 0.105384,0.1078638 0.158076,0.2746186 0.158076,0.5002646 v 1.355735 H 11.592536 V 1.9460269 c 0,-0.1338999 -0.01116,-0.2299853 -0.03348,-0.2882566 -0.02108,-0.059511 -0.06013,-0.1072437 -0.117163,-0.1431984 -0.05704,-0.035954 -0.123983,-0.053931 -0.200849,-0.053931 -0.138859,0 -0.254162,0.046493 -0.345908,0.1394789 -0.09175,0.091746 -0.137619,0.2392838 -0.137619,0.4426132 v 1.1474466 h -0.33475 V 1.9069728 c 0,-0.1487776 -0.02727,-0.2603608 -0.08182,-0.3347496 -0.05455,-0.074389 -0.143822,-0.1115831 -0.2678,-0.1115831 -0.09423,0 -0.1816322,0.024796 -0.2622201,0.074389 -0.079347,0.049593 -0.136999,0.1221218 -0.1729537,0.2175872 -0.035954,0.095465 -0.053931,0.2330849 -0.053931,0.4128577 V 3.1901792 Z M 13.710756,2.946556 c -0.123981,0.105384 -0.243623,0.1797728 -0.358925,0.2231663 -0.114063,0.043394 -0.236804,0.06509 -0.368225,0.06509 -0.216967,0 -0.383722,-0.052692 -0.500264,-0.1580762 -0.116543,-0.1066239 -0.174814,-0.2423834 -0.174814,-0.4072786 0,-0.096705 0.02169,-0.1847321 0.06509,-0.2640801 0.04463,-0.080588 0.102284,-0.1450582 0.172954,-0.1934108 0.07191,-0.048353 0.152498,-0.084928 0.241764,-0.1097235 0.06571,-0.017358 0.164895,-0.034095 0.297555,-0.050212 0.270279,-0.032235 0.46927,-0.07067 0.59697,-0.1153027 0.0013,-0.045873 0.0018,-0.075009 0.0018,-0.087407 0,-0.1363795 -0.03162,-0.2324649 -0.09485,-0.2882565 -0.08555,-0.075629 -0.212628,-0.1134429 -0.381242,-0.1134429 -0.157457,0 -0.273999,0.027896 -0.349628,0.083688 -0.07439,0.054552 -0.12956,0.1518772 -0.165514,0.2919759 l -0.327311,-0.044634 c 0.02976,-0.1400989 0.07873,-0.2529218 0.146918,-0.338469 0.06819,-0.086787 0.166754,-0.1531168 0.295695,-0.19899 0.128941,-0.047112 0.278338,-0.070669 0.448192,-0.070669 0.168614,0 0.305613,0.019837 0.410998,0.059511 0.105384,0.039674 0.182873,0.089887 0.232465,0.1506373 0.04959,0.059511 0.08431,0.1351395 0.104144,0.2268858 0.01116,0.057031 0.01673,0.1599358 0.01673,0.3087134 V 2.362604 c 0,0.3111931 0.0068,0.5083234 0.02046,0.5913909 0.01488,0.081828 0.0434,0.1605558 0.08555,0.2361844 H 13.77767 C 13.74295,3.1207493 13.72064,3.0395414 13.71072,2.9465555 Z m -0.02789,-0.7476073 c -0.121503,0.049593 -0.303755,0.091746 -0.546758,0.1264609 -0.137619,0.019837 -0.234944,0.042153 -0.291976,0.06695 -0.05704,0.024796 -0.101048,0.061371 -0.13204,0.1097235 -0.03099,0.047113 -0.04649,0.099805 -0.04649,0.1580762 0,0.089266 0.03348,0.1636553 0.100425,0.2231663 0.06819,0.059511 0.167375,0.089266 0.297555,0.089266 0.128941,0 0.243623,-0.027896 0.344048,-0.083688 0.100425,-0.057031 0.174194,-0.1345197 0.221307,-0.2324649 0.03596,-0.075629 0.05394,-0.1872117 0.05394,-0.3347495 z m 0.72343,0.4016994 0.33103,-0.052072 c 0.0186,0.1326599 0.07005,0.2343247 0.154357,0.304994 0.08555,0.070669 0.204569,0.106004 0.357066,0.106004 0.153736,0 0.267799,-0.030995 0.342188,-0.092986 0.07439,-0.06323 0.111583,-0.1369995 0.111583,-0.2213067 0,-0.075629 -0.03286,-0.1351396 -0.09857,-0.178533 -0.04587,-0.029756 -0.159936,-0.06757 -0.342188,-0.1134431 -0.245483,-0.061991 -0.415957,-0.1153026 -0.511423,-0.1599359 -0.09423,-0.045873 -0.166135,-0.1084835 -0.215727,-0.1878316 -0.04835,-0.080588 -0.07253,-0.1692345 -0.07253,-0.2659399 0,-0.088027 0.01983,-0.1692345 0.05951,-0.2436233 0.04091,-0.075629 0.09609,-0.1382391 0.165514,-0.1878317 0.05207,-0.038435 0.12274,-0.07067 0.212009,-0.096705 0.0905,-0.027276 0.187211,-0.040913 0.290116,-0.040913 0.154977,0 0.290736,0.022317 0.407278,0.06695 0.117782,0.044633 0.204569,0.1053839 0.260361,0.1822525 0.05579,0.075629 0.09423,0.1772933 0.115303,0.304994 l -0.327311,0.044634 c -0.01488,-0.1016647 -0.05827,-0.1810127 -0.13018,-0.2380441 -0.07067,-0.057031 -0.171095,-0.085547 -0.301275,-0.085547 -0.153737,0 -0.263461,0.025416 -0.32917,0.076248 -0.06571,0.050833 -0.09856,0.1103433 -0.09856,0.1785331 0,0.043394 0.01364,0.082448 0.04091,0.1171624 0.02727,0.035954 0.07005,0.06571 0.128321,0.089266 0.03347,0.012399 0.132042,0.040914 0.295695,0.085547 0.236804,0.06323 0.401699,0.1153027 0.494685,0.1562165 0.09423,0.039674 0.167995,0.097945 0.221307,0.1748136 0.05331,0.076869 0.07996,0.172334 0.07996,0.2863968 0,0.1115832 -0.03286,0.2169674 -0.09857,0.3161524 -0.06447,0.097945 -0.158076,0.1741937 -0.280817,0.2287454 -0.122741,0.053312 -0.2616,0.079968 -0.416577,0.079968 -0.256641,0 -0.452532,-0.053312 -0.587671,-0.1599359 -0.1339,-0.1066239 -0.219447,-0.2647001 -0.256641,-0.4742285 z"
       id="path5"
       style="font-size:3.9538px;line-height:1.25;font-family:Arial;-inkscape-font-specification:Arial;stroke-width:0.0952179"
       aria-label="Sistemas "
       sodipodi:nodetypes="ccccsscscccccscsscscccscsccccsccscccccccccccscsccccscccscccccsssccccssccsccccsscsccccccccccsccscccsscsssssccsssccccscccccccsccscsccscsscsccscscssccccscscccccscscccccssccssccccccscscscccccccscsccccscccscccccsssccccssccsccc" /><path
       d="M 4.2075391,5.8765204 V 4.0488332 H 4.4863388 V 4.3087021 C 4.6205757,4.1079203 4.8144734,4.0075295 5.0680321,4.0075295 c 0.1101431,0 0.2111077,0.020078 0.3028935,0.060234 0.092934,0.039009 0.1623464,0.090639 0.2082394,0.1548888 0.045893,0.06425 0.078018,0.1405472 0.096375,0.2288911 0.011474,0.057366 0.01721,0.1577568 0.01721,0.3011725 V 5.8765201 H 5.382972 v -1.111757 c 0,-0.1262056 -0.012047,-0.2202863 -0.03614,-0.2822418 C 5.3227382,4.4194189 5.2797134,4.3695102 5.2177579,4.3327959 5.1569497,4.2949342 5.085242,4.2760033 5.0026346,4.2760033 c -0.1319423,0 -0.2461009,0.041878 -0.3424762,0.125632 -0.095228,0.083754 -0.1428418,0.242659 -0.1428418,0.4767131 v 0.998172 z m 2.6365507,-0.2770788 0.044745,0.2736368 c -0.087196,0.018358 -0.1652147,0.027536 -0.2340541,0.027536 -0.1124378,0 -0.1996344,-0.017784 -0.2615899,-0.053351 C 6.3312359,5.8116967 6.2876376,5.76523 6.2623964,5.7078638 6.2371553,5.6493503 6.2245348,5.5271602 6.2245348,5.3412937 V 4.2897712 H 5.9973646 V 4.0488332 H 6.2245348 V 3.5962138 L 6.5325912,3.4103473 v 0.6384859 h 0.3114986 v 0.240938 H 6.5325912 v 1.0687324 c 0,0.088345 0.00516,0.1451365 0.015489,0.1703776 0.011473,0.025241 0.029256,0.045319 0.053351,0.060234 0.025241,0.014915 0.060808,0.022373 0.106701,0.022373 0.03442,0 0.079739,-0.00402 0.1359576,-0.012047 z M 8.39814,5.2879431 8.7182434,5.3275258 C 8.6677612,5.5145396 8.5742542,5.6596761 8.4377227,5.7629353 8.3011911,5.8661945 8.1267979,5.917824 7.9145429,5.917824 7.6472164,5.917824 7.4349614,5.8357903 7.2777781,5.6717231 7.1217421,5.5065084 7.043724,5.2753226 7.043724,4.9781656 c 0,-0.3074828 0.079165,-0.5461262 0.2374961,-0.7159302 0.1583307,-0.1698039 0.3637017,-0.2547059 0.616113,-0.2547059 0.24438,0 0.4440143,0.083181 0.5989031,0.249543 0.1548887,0.166362 0.2323331,0.4004161 0.2323331,0.7021623 0,0.018358 -5.748e-4,0.045893 -0.00172,0.082607 H 7.3638274 c 0.011473,0.2007817 0.068265,0.3545231 0.1703776,0.4612242 0.1021119,0.1067012 0.2294648,0.1600518 0.3820589,0.1600518 0.1135851,0 0.210534,-0.029831 0.2908467,-0.089491 C 8.2874232,5.5139666 8.3510997,5.4187385 8.39814,5.2879431 Z M 7.3810372,4.7871362 H 8.401582 C 8.3878141,4.6333947 8.348805,4.5180887 8.284555,4.441218 8.185885,4.3218963 8.0579584,4.2622354 7.900775,4.2622354 c -0.1422681,0 -0.2621635,0.047614 -0.359686,0.1428419 C 7.444714,4.5003053 7.3913631,4.6276582 7.3810372,4.7871362 Z M 9.1037446,5.8765204 V 4.0488332 H 9.3825443 V 4.3259119 C 9.4536784,4.1962643 9.5190758,4.1107887 9.5787367,4.069485 9.6395457,4.028181 9.7060897,4.007529 9.7783712,4.007529 c 0.1044065,0 0.2105336,0.033272 0.3183818,0.099817 L 9.9900521,4.3947512 c -0.075725,-0.044745 -0.1514466,-0.067118 -0.2271699,-0.067118 -0.067691,0 -0.1285001,0.020652 -0.1824245,0.061956 -0.053925,0.040156 -0.09236,0.096375 -0.1153061,0.1686566 -0.03442,0.1101431 -0.051629,0.2306121 -0.051629,0.3614071 V 5.8765204 Z M 11.473543,5.6510712 c -0.114732,0.097523 -0.22545,0.1663621 -0.332151,0.2065184 -0.105554,0.040156 -0.219139,0.060234 -0.340756,0.060234 -0.200781,0 -0.355096,-0.048761 -0.462944,-0.1462837 -0.107849,-0.09867 -0.161773,-0.2243018 -0.161773,-0.376896 0,-0.089491 0.02008,-0.1709512 0.06024,-0.24438 0.04131,-0.074576 0.09465,-0.1342369 0.160051,-0.1789826 0.06655,-0.044745 0.141121,-0.078591 0.223728,-0.1015382 0.06081,-0.016063 0.152596,-0.031552 0.275359,-0.046467 0.250116,-0.029831 0.434261,-0.065398 0.552435,-0.1067012 0.0012,-0.042451 0.0017,-0.069413 0.0017,-0.080887 0,-0.1262057 -0.02926,-0.2151233 -0.08777,-0.2667529 -0.07916,-0.069987 -0.196766,-0.1049801 -0.352802,-0.1049801 -0.14571,0 -0.253559,0.025815 -0.323546,0.077445 -0.06884,0.050482 -0.119895,0.1405471 -0.153168,0.2701948 l -0.302893,-0.041303 c 0.02754,-0.1296476 0.07286,-0.2340541 0.135958,-0.3132195 0.06311,-0.080312 0.154315,-0.1416946 0.273637,-0.1841455 0.119321,-0.043598 0.257574,-0.065398 0.414757,-0.065398 0.156037,0 0.282816,0.018358 0.380338,0.055072 0.09752,0.036714 0.169231,0.083181 0.215124,0.1393998 0.04589,0.055071 0.07802,0.1250581 0.09637,0.2099604 0.01033,0.052776 0.01549,0.1480046 0.01549,0.2856836 v 0.4130367 c 0,0.2879783 0.0063,0.4704029 0.01893,0.5472735 0.01377,0.075723 0.04016,0.1485786 0.07916,0.2185653 h -0.32356 c -0.03213,-0.06425 -0.05278,-0.1394001 -0.06196,-0.2254494 z m -0.02582,-0.6918364 c -0.112437,0.045893 -0.281093,0.084902 -0.50597,0.117027 -0.127352,0.018358 -0.217417,0.039009 -0.270194,0.061956 -0.05278,0.022947 -0.09351,0.056793 -0.12219,0.1015381 -0.02868,0.043598 -0.04302,0.09236 -0.04302,0.1462838 0,0.082607 0.03098,0.1514469 0.09293,0.2065184 0.06311,0.055071 0.154889,0.082607 0.275358,0.082607 0.119322,0 0.22545,-0.025815 0.318382,-0.077445 0.09293,-0.052776 0.1612,-0.1244845 0.204799,-0.2151232 0.03327,-0.069987 0.04991,-0.173246 0.04991,-0.3097775 z m 1.986019,0.247822 0.304615,0.039583 c -0.03327,0.2099603 -0.118749,0.3746013 -0.256428,0.493923 -0.136531,0.1181744 -0.304614,0.1772615 -0.504248,0.1772615 -0.250117,0 -0.451473,-0.08146 -0.604067,-0.24438 -0.151447,-0.1640673 -0.22717,-0.3986951 -0.22717,-0.7038833 0,-0.1973397 0.0327,-0.370012 0.0981,-0.5180168 0.0654,-0.1480048 0.164642,-0.2587216 0.297731,-0.3321504 0.134237,-0.074576 0.279947,-0.111864 0.43713,-0.111864 0.198488,0 0.360834,0.050482 0.487039,0.1514467 0.126206,0.099817 0.207093,0.2420855 0.24266,0.4268046 L 13.40793,4.632248 C 13.37925,4.5094844 13.3282,4.4171248 13.254762,4.3551693 c -0.07228,-0.061956 -0.160051,-0.092934 -0.263311,-0.092934 -0.156035,0 -0.282815,0.056219 -0.380337,0.1686567 -0.09752,0.1112904 -0.146284,0.2879783 -0.146284,0.5300637 0,0.2455274 0.04704,0.4239362 0.14112,0.5352266 0.09408,0.1112905 0.216844,0.1669358 0.368292,0.1669358 0.121616,0 0.223155,-0.037288 0.304615,-0.1118642 0.08146,-0.074576 0.133089,-0.1893085 0.154888,-0.3441974 z m 1.245993,0.3923848 0.04475,0.2736368 c -0.0872,0.018358 -0.165215,0.027536 -0.234055,0.027536 -0.112438,0 -0.199634,-0.017784 -0.261589,-0.053351 -0.06195,-0.035567 -0.105552,-0.082034 -0.130796,-0.1393999 -0.02524,-0.058514 -0.03786,-0.1807036 -0.03786,-0.36657 V 4.2897712 h -0.227171 v -0.240938 h 0.227169 V 3.5962138 L 14.36824,3.4103473 v 0.6384859 h 0.311498 v 0.240938 H 14.36824 v 1.0687324 c 0,0.088345 0.0052,0.1451365 0.01549,0.1703776 0.01147,0.025241 0.02926,0.045319 0.05335,0.060234 0.02524,0.014915 0.0608,0.022373 0.106701,0.022373 0.03442,0 0.07974,-0.00402 0.135957,-0.012047 z M 14.984354,3.709799 V 3.3535548 h 0.309778 V 3.709799 Z m 0,2.1667214 V 4.0488332 h 0.309778 v 1.8276872 z m 1.289019,0 -0.695279,-1.8276872 h 0.326987 l 0.392385,1.0945471 c 0.04245,0.1181744 0.08146,0.2409381 0.117028,0.368291 0.02754,-0.096375 0.06598,-0.212255 0.115305,-0.3476391 l 0.406154,-1.115199 h 0.318382 l -0.691836,1.8276872 z m 1.139292,-0.9138436 c 0,-0.3384606 0.09409,-0.5891509 0.282242,-0.7520709 0.157183,-0.1353843 0.348787,-0.2030764 0.574809,-0.2030764 0.251264,0 0.456636,0.082607 0.616113,0.247822 0.159478,0.1640674 0.239217,0.3912375 0.239217,0.6815105 0,0.2352014 -0.03557,0.4204943 -0.106701,0.5558785 -0.06998,0.1342369 -0.172672,0.2386433 -0.308056,0.3132194 -0.134238,0.074576 -0.281095,0.1118641 -0.440573,0.1118641 -0.255853,0 -0.462944,-0.082034 -0.621276,-0.2461009 C 17.491257,5.5076557 17.412665,5.2713069 17.412665,4.9626768 Z m 0.318383,0 c 0,0.2340541 0.05105,0.4095946 0.153167,0.5266217 0.102112,0.1158798 0.230613,0.1738197 0.385501,0.1738197 0.153742,0 0.281668,-0.058514 0.38378,-0.1755406 0.102112,-0.1170271 0.153168,-0.295436 0.153168,-0.5352267 0,-0.2260229 -0.05163,-0.3969741 -0.154888,-0.5128539 -0.102112,-0.117027 -0.229466,-0.1755405 -0.38206,-0.1755405 -0.154888,0 -0.283389,0.05794 -0.385501,0.1738195 -0.102111,0.1158797 -0.153167,0.2908467 -0.153167,0.5249008 z m 1.633216,0.368291 0.306336,-0.048187 c 0.01721,0.1227637 0.06482,0.2168442 0.142842,0.2822417 0.07916,0.065398 0.189308,0.098096 0.330429,0.098096 0.142268,0 0.247822,-0.028683 0.316661,-0.086049 0.06884,-0.058514 0.10326,-0.1267794 0.10326,-0.2047973 0,-0.069987 -0.0304,-0.1250584 -0.09122,-0.1652147 -0.04245,-0.027536 -0.148003,-0.062529 -0.316661,-0.1049801 -0.22717,-0.057366 -0.384927,-0.1067009 -0.473271,-0.1480049 -0.0872,-0.042451 -0.153742,-0.1003907 -0.199635,-0.1738196 -0.04475,-0.074576 -0.06712,-0.1566097 -0.06712,-0.246101 0,-0.08146 0.01836,-0.1566097 0.05507,-0.2254492 0.03787,-0.069987 0.08892,-0.1279265 0.153168,-0.1738195 0.04818,-0.035567 0.113582,-0.065398 0.196192,-0.089491 0.08376,-0.025241 0.173246,-0.037862 0.268474,-0.037862 0.143415,0 0.269047,0.020652 0.376896,0.061956 0.108996,0.041303 0.189308,0.097523 0.240937,0.1686565 0.05162,0.069987 0.08719,0.1640674 0.106701,0.2822418 l -0.302893,0.041303 c -0.01376,-0.094081 -0.05392,-0.1675092 -0.120468,-0.2202862 -0.0654,-0.052776 -0.158332,-0.079165 -0.2788,-0.079165 -0.142269,0 -0.243807,0.02352 -0.304615,0.070561 -0.06081,0.04704 -0.09121,0.1021115 -0.09121,0.1652147 0,0.040156 0.01262,0.076297 0.03786,0.1084221 0.02524,0.033272 0.06482,0.060808 0.118748,0.082607 0.03098,0.011474 0.122192,0.037862 0.273637,0.079165 0.219138,0.058514 0.371733,0.1067012 0.457782,0.1445628 0.0872,0.036714 0.155462,0.090639 0.204797,0.1617727 0.04933,0.071134 0.074,0.1594781 0.074,0.2650319 0,0.1032592 -0.0304,0.2007817 -0.09122,0.2925676 -0.05966,0.090638 -0.146283,0.1611991 -0.259868,0.2116813 -0.113586,0.049335 -0.242086,0.074002 -0.385501,0.074002 -0.237497,0 -0.418774,-0.049335 -0.543832,-0.1480048 -0.12391,-0.09867 -0.203076,-0.2449537 -0.237496,-0.4388515 z"
       id="text1-9"
       style="font-size:3.65885px;line-height:1.25;font-family:Arial;-inkscape-font-specification:Arial;stroke-width:0.0881148"
       aria-label="Interactivos"
       sodipodi:nodetypes="ccccscscsccsccscsccccsscsccccccccccsccscccsscsssssccsssccccscccccccsccsccsccccscscccccscscccccssccssccccccscscsccsccccscsscsccccscsssscccsscsccccccccccsccsscccccccccccccccccccccscscsccscsscssscssscccscsccccscccscccccsssccccssccsccc" /><path
       d="m 4.9748488,6.0087786 h 0.3340337 v 1.4583843 c 0,0.253682 -0.028697,0.4551353 -0.086091,0.6043601 C 5.1653965,8.2207477 5.0615139,8.3424232 4.9111414,8.4365495 4.7619167,8.5295275 4.5656289,8.5760171 4.3222779,8.5760171 4.0858142,8.5760171 3.892396,8.5352671 3.7420234,8.4537677 3.5916506,8.372268 3.4843237,8.2546102 3.4200422,8.100794 3.3557609,7.9458299 3.3236202,7.7346196 3.3236202,7.4671629 V 1.2071705 h 0.3340337 v 6.2582706 c 0,0.2192455 0.020088,0.3810969 0.060264,0.4855542 0.041324,0.1033094 0.1113446,0.1830872 0.2100625,0.2393334 0.099866,0.056246 0.2215412,0.084369 0.3650265,0.084369 0.2456468,0 0.4206988,-0.055672 0.5251561,-0.1670169 C 4.9226205,7.9963361 4.9748491,7.7822561 4.9748491,7.4654406 Z m 1.1364033,2.524193 H 5.8237077 V 6.0087786 H 6.1336358 V 6.9092922 C 6.2644944,6.745145 6.4315113,6.6630715 6.6346865,6.6630715 c 0.1124924,0 0.2186715,0.022957 0.3185372,0.068873 0.1010137,0.044768 0.1836612,0.1084747 0.2479427,0.1911224 0.065429,0.081499 0.11651,0.1802175 0.1532422,0.2961537 0.036732,0.1159361 0.055098,0.2399073 0.055098,0.3719138 0,0.3133718 -0.077482,0.555575 -0.2324461,0.7266095 C 7.0220966,8.4887782 6.8361397,8.5742953 6.61919,8.5742953 c -0.2158018,0 -0.3851145,-0.090109 -0.5079379,-0.2703262 z m -0.00344,-0.9280628 c 0,0.2192455 0.029845,0.3776533 0.089535,0.4752232 0.09757,0.1595557 0.2295764,0.2393335 0.3960193,0.2393335 0.1354501,0 0.2525341,-0.058542 0.3512519,-0.175626 C 7.0433374,8.0256076 7.0926964,7.8499817 7.0926964,7.6169616 7.0926964,7.378202 7.0450591,7.2020022 6.949785,7.0883618 6.8556588,6.9747215 6.7414444,6.9179013 6.6071422,6.9179013 c -0.1354501,0 -0.2525341,0.059116 -0.351252,0.1773478 -0.098721,0.117084 -0.1480817,0.2869706 -0.1480817,0.5096597 z M 7.788308,6.365196 V 6.0087786 H 8.0982363 V 6.365196 Z m 0,2.1677756 V 6.7043952 H 8.0982363 V 8.5329716 Z M 9.7632396,7.8631823 10.068003,7.9027846 C 10.034711,8.1128468 9.9491965,8.2775678 9.811451,8.3969476 9.6748527,8.5151794 9.5066879,8.5742953 9.3069563,8.5742953 9.056718,8.5742953 8.8552647,8.4927961 8.7025964,8.3297964 8.5510759,8.1656493 8.4753157,7.9309074 8.4753157,7.6255707 c 0,-0.1974358 0.032715,-0.370192 0.098144,-0.5182688 C 8.638889,6.9592251 8.7381807,6.8484544 8.871335,6.77499 9.0056372,6.7003774 9.1514183,6.6630715 9.3086782,6.6630715 c 0.1985836,0 0.3610093,0.050507 0.4872761,0.1515204 0.1262668,0.099866 0.2071927,0.2422031 0.2427777,0.4270122 L 9.7374125,7.2880931 C 9.7087157,7.1652697 9.6576318,7.0728652 9.5841699,7.0108796 9.5118539,6.9488939 9.4240403,6.9179016 9.320731,6.9179016 c -0.156112,0 -0.282953,0.056246 -0.380523,0.1687386 -0.09757,0.1113446 -0.146355,0.2881185 -0.146355,0.5303217 0,0.2456468 0.047063,0.4241425 0.1411895,0.5354871 0.094126,0.1113445 0.2169497,0.1670168 0.3684702,0.1670168 0.1216755,0 0.2232631,-0.037306 0.3047627,-0.1119185 0.0815,-0.074613 0.1331541,-0.1894009 0.1549642,-0.344365 z M 11.531552,8.5329716 V 8.2643672 c -0.142337,0.2066187 -0.335755,0.3099281 -0.580254,0.3099281 -0.107901,0 -0.208914,-0.020662 -0.303042,-0.061986 -0.09298,-0.041324 -0.162424,-0.092979 -0.20834,-0.1549641 -0.04476,-0.063134 -0.07633,-0.1400416 -0.0947,-0.2307243 -0.01263,-0.060837 -0.01894,-0.1572598 -0.01894,-0.2892663 V 6.7043952 h 0.309929 v 1.014154 c 0,0.1618514 0.0064,0.2709002 0.01894,0.3271464 0.01952,0.081499 0.06084,0.145781 0.123971,0.1928442 0.06313,0.045916 0.141192,0.068873 0.234169,0.068873 0.09298,0 0.180217,-0.023532 0.261716,-0.070595 0.0815,-0.04821 0.138894,-0.1130661 0.172183,-0.1945661 0.03444,-0.082647 0.05165,-0.2020272 0.05165,-0.3581393 V 6.7043952 h 0.309928 v 1.8285764 z m 0.647406,-0.9142882 c 0,-0.3386252 0.09412,-0.5894375 0.282378,-0.7524368 0.15726,-0.13545 0.348957,-0.2031751 0.575089,-0.2031751 0.251386,0 0.456858,0.082648 0.616414,0.2479425 0.159555,0.1641471 0.239333,0.3914278 0.239333,0.681842 0,0.2353158 -0.03558,0.4206989 -0.106753,0.556149 -0.07002,0.1343021 -0.172757,0.2387595 -0.308207,0.3133718 -0.134303,0.074613 -0.281231,0.1119185 -0.440787,0.1119185 -0.255977,0 -0.463169,-0.082073 -0.621578,-0.2462207 -0.15726,-0.1641471 -0.235889,-0.4006108 -0.235889,-0.7093912 z m 0.318537,0 c 0,0.234168 0.05108,0.409794 0.153242,0.5268779 0.102161,0.1159361 0.230724,0.1739042 0.385688,0.1739042 0.153816,0 0.281806,-0.058542 0.383967,-0.175626 0.102162,-0.117084 0.153243,-0.2955797 0.153243,-0.535487 0,-0.2261329 -0.05165,-0.3971674 -0.154965,-0.5131034 -0.102161,-0.117084 -0.229576,-0.175626 -0.382245,-0.175626 -0.154964,0 -0.283527,0.057968 -0.385688,0.1739042 -0.102161,0.115936 -0.153242,0.2909881 -0.153242,0.5251561 z m 1.63401,0.3684702 0.306485,-0.048211 c 0.01721,0.1228234 0.06486,0.2169497 0.142911,0.2823789 0.0792,0.065429 0.1894,0.098144 0.33059,0.098144 0.142337,0 0.247942,-0.028697 0.316815,-0.086091 0.06888,-0.058542 0.10331,-0.1268409 0.10331,-0.2048971 0,-0.070021 -0.03042,-0.1251191 -0.09125,-0.165295 -0.04247,-0.027548 -0.14808,-0.062559 -0.316819,-0.1050306 -0.22728,-0.057395 -0.385113,-0.1067531 -0.4735,-0.1480768 -0.08724,-0.042472 -0.153817,-0.1004397 -0.199732,-0.1739042 -0.04476,-0.074613 -0.06715,-0.1566859 -0.06715,-0.2462207 0,-0.081499 0.01837,-0.156686 0.0551,-0.2255589 0.03789,-0.070021 0.08896,-0.1279888 0.153242,-0.1739042 0.04821,-0.035584 0.11364,-0.065429 0.196288,-0.089535 0.0838,-0.025253 0.17333,-0.03788 0.268605,-0.03788 0.143484,0 0.269178,0.020662 0.377079,0.061986 0.109048,0.041324 0.1894,0.09757 0.241055,0.1687386 0.05165,0.070021 0.08724,0.1641473 0.106754,0.2823791 l -0.303042,0.041324 c -0.01377,-0.094126 -0.05396,-0.1675907 -0.120527,-0.2203933 -0.06543,-0.052803 -0.158409,-0.079204 -0.278936,-0.079204 -0.142337,0 -0.243925,0.023532 -0.304762,0.070595 -0.06083,0.047063 -0.09125,0.1021614 -0.09125,0.165295 0,0.040176 0.01263,0.076334 0.03788,0.1084749 0.02525,0.033289 0.06485,0.060837 0.118805,0.082648 0.03099,0.011479 0.12225,0.03788 0.273771,0.079204 0.219245,0.058542 0.371914,0.1067529 0.458005,0.1446331 0.08724,0.036732 0.155538,0.090682 0.204896,0.1618514 0.04936,0.071169 0.07404,0.1595557 0.07404,0.2651608 0,0.1033094 -0.03042,0.2008794 -0.09125,0.29271 -0.0597,0.090682 -0.146357,0.1612774 -0.259995,0.2117843 -0.11364,0.049359 -0.242203,0.074038 -0.385688,0.074038 -0.237612,0 -0.418978,-0.049359 -0.544097,-0.1480767 -0.123975,-0.098718 -0.20318,-0.2450728 -0.237617,-0.4390648 z"
       id="text1-9-3"
       style="font-size:3.66063px;line-height:1.25;font-family:Arial;-inkscape-font-specification:Arial;stroke-width:0.0881578"
       aria-label="Ubicuos"
       sodipodi:nodetypes="ccsscsscsccsccsssccccccsccssssccccscscsccccccccccccccccscsscsccccscsssscccscccsccsccsccsccccscscsccscsscssscssscccscsccccscccscccccsssccccssccscc" /></g></svg>
