<?xml version="1.0" encoding="UTF-8" standalone="no"?>
<svg
   width="45.656166mm"
   height="11.405068mm"
   viewBox="0 0 45.656167 11.405069"
   version="1.1"
   id="svg8"
   xml:space="preserve"
   sodipodi:docname="logo.svg"
   inkscape:version="1.3 (0e150ed6c4, 2023-07-21)"
   xmlns:inkscape="http://www.inkscape.org/namespaces/inkscape"
   xmlns:sodipodi="http://sodipodi.sourceforge.net/DTD/sodipodi-0.dtd"
   xmlns="http://www.w3.org/2000/svg"
   xmlns:svg="http://www.w3.org/2000/svg"
   xmlns:rdf="http://www.w3.org/1999/02/22-rdf-syntax-ns#"
   xmlns:cc="http://creativecommons.org/ns#"
   xmlns:dc="http://purl.org/dc/elements/1.1/"><sodipodi:namedview
     id="namedview1"
     pagecolor="#ffffff"
     bordercolor="#666666"
     borderopacity="1.0"
     inkscape:showpageshadow="2"
     inkscape:pageopacity="0.0"
     inkscape:pagecheckerboard="0"
     inkscape:deskcolor="#d1d1d1"
     inkscape:document-units="mm"
     inkscape:zoom="2.8284271"
     inkscape:cx="124.09724"
     inkscape:cy="-44.37095"
     inkscape:window-width="1920"
     inkscape:window-height="1009"
     inkscape:window-x="984"
     inkscape:window-y="1081"
     inkscape:window-maximized="1"
     inkscape:current-layer="g4" /><defs
     id="defs2" /><metadata
     id="metadata5"><rdf:RDF><cc:Work
         rdf:about=""><dc:format>image/svg+xml</dc:format><dc:type
           rdf:resource="http://purl.org/dc/dcmitype/StillImage" /></cc:Work></rdf:RDF></metadata><path
     d="m 31.707391,3.9252733 h 2.145718 q 0.701,0 1.048641,0.3333984 0.350494,0.3333998 0.350494,0.9489043 0,0.6326029 -0.381838,0.9887987 -0.378996,0.3561958 -1.159778,0.3561958 H 33.00393 V 8.1027347 H 31.707391 Z M 33.00393,5.706251 h 0.316307 q 0.373298,0 0.52432,-0.1282321 0.151033,-0.1310821 0.151033,-0.3333996 0,-0.1966206 -0.131041,-0.3333986 -0.131043,-0.1367811 -0.492966,-0.1367811 h -0.367609 z m 5.642144,-1.7809777 h 1.287998 v 2.4905181 q 0,0.370444 -0.11686,0.7009935 -0.113965,0.3276996 -0.36189,0.5756114 -0.245066,0.2450631 -0.515757,0.3447967 -0.376152,0.1396301 -0.903316,0.1396301 -0.304909,0 -0.666801,-0.04274 Q 37.010394,8.0913431 36.768182,7.9659593 36.525971,7.837727 36.323644,7.6040639 36.124183,7.3704001 36.050098,7.1224872 35.930342,6.7235491 35.930342,6.4157958 V 3.9252776 h 1.287998 v 2.5503596 q 0,0.3419477 0.188076,0.5357182 0.190919,0.1909194 0.527164,0.1909194 0.333401,0 0.521475,-0.1880704 0.190921,-0.1909205 0.190921,-0.5385672 z m 4.924051,2.470572 1.131266,0.3419466 q -0.113965,0.4758777 -0.359036,0.7950292 -0.245067,0.3191509 -0.609812,0.4815764 -0.361901,0.1624256 -0.923251,0.1624256 -0.681052,0 -1.114184,-0.1966212 -0.430287,-0.1994689 -0.74374,-0.6981427 -0.313452,-0.4986727 -0.313452,-1.2766038 0,-1.0372421 0.549977,-1.5929075 0.55281,-0.5585132 1.561553,-0.5585132 0.789334,0 1.239571,0.3191504 0.453079,0.3191504 0.672489,0.9802507 l -1.13983,0.2536108 Q 43.461798,5.2161263 43.396278,5.1277895 43.287944,4.9796113 43.131274,4.8998248 q -0.156721,-0.079782 -0.350506,-0.079782 -0.438827,0 -0.672488,0.3533457 -0.176669,0.2621601 -0.176669,0.8235234 0,0.6952946 0.210856,0.9546044 0.210869,0.2564611 0.592719,0.2564611 0.370431,0 0.558518,-0.2080187 0.190908,-0.2080186 0.27641,-0.6041065 z"
     id="text2-3"
     style="font-weight:900;font-size:4.23975px;line-height:1.25;font-family:Arial;-inkscape-font-specification:'Arial, Heavy';stroke-width:0.145898;fill:#666666"
     aria-label="PUC" /><g
     id="g4"
     transform="matrix(1.3543686,0,0,1.3543686,-0.74486708,-0.37940169)"
     style="fill:#7655ed;fill-opacity:1"><path
       d="M 0.70201854,2.3865151 1.0553122,2.3556261 q 0.025097,0.2123623 0.115834,0.3494325 0.092667,0.1351396 0.2857238,0.2200845 0.1930566,0.083014 0.4343774,0.083014 0.2142929,0 0.378391,-0.063709 0.1640982,-0.063709 0.2432514,-0.173751 0.081084,-0.1119728 0.081084,-0.2432513 0,-0.1332091 -0.077223,-0.231668 Q 2.4395283,2.1953891 2.2619162,2.1278192 2.1480128,2.0834162 1.7580384,1.990749 1.3680639,1.8961513 1.2116881,1.8131369 1.0089786,1.7069558 0.90858914,1.5505799 0.81013026,1.3922734 0.81013026,1.1972862 q 0,-0.21429284 0.12162568,-0.39962721 0.12162566,-0.18726494 0.35522426,-0.28379326 0.2335985,-0.0965283 0.5193223,-0.0965283 0.3146823,0 0.5540726,0.10232002 0.2413208,0.10038945 0.3706687,0.29730722 0.129348,0.19691775 0.1390008,0.44596085 L 2.5109592,1.2899534 Q 2.4820008,1.0216047 2.3140415,0.88453447 2.1480128,0.74746426 1.821747,0.74746426 q -0.3397796,0 -0.4961555,0.12548681 -0.1544453,0.12355625 -0.1544453,0.29923783 0,0.1525147 0.1100423,0.2509736 0.1081117,0.098459 0.5637253,0.2027095 0.4575443,0.10232 0.6274341,0.1795426 0.2471125,0.1139035 0.3648771,0.289585 0.1177645,0.173751 0.1177645,0.4015578 0,0.2258763 -0.1293479,0.4266552 -0.129348,0.1988483 -0.3725993,0.3108212 -0.2413208,0.1100423 -0.5444198,0.1100423 -0.3841827,0 -0.6448091,-0.1119729 Q 1.0051175,3.1201304 0.85646385,2.8961846 0.70974081,2.6703084 0.70201854,2.3865151 Z M 3.4241171,0.86522881 V 0.46560157 H 3.771619 v 0.39962724 z m 0,2.43058309 V 1.2455504 H 3.771619 V 3.2958119 Z M 4.1615935,2.6838223 4.5052343,2.6297665 q 0.028958,0.2065706 0.160237,0.3166129 0.1332091,0.1100423 0.3706687,0.1100423 0.2393903,0 0.3552242,-0.096528 0.115834,-0.098459 0.115834,-0.2297374 0,-0.1177645 -0.10232,-0.1853343 Q 5.3334473,2.498488 5.049654,2.427057 4.6674019,2.3305287 4.5187482,2.2610283 4.3720252,2.1895974 4.2948025,2.0660411 4.2195104,1.9405543 4.2195104,1.7899701 q 0,-0.1370702 0.061778,-0.2529042 0.063709,-0.1177645 0.1718204,-0.1949872 0.081084,-0.059848 0.2200846,-0.1003894 0.1409313,-0.042472 0.3011683,-0.042472 0.2413208,0 0.422794,0.0695 0.1834039,0.0695 0.2702793,0.1891955 0.086875,0.1177645 0.1196952,0.3166129 L 5.4473507,1.8208592 Q 5.4241839,1.6625527 5.312211,1.5737467 5.2021687,1.4849406 4.9994593,1.4849406 q -0.2393903,0 -0.3417103,0.079153 -0.10232,0.079153 -0.10232,0.1853344 0,0.06757 0.042472,0.1216257 0.042472,0.055986 0.133209,0.092667 0.052125,0.019306 0.3069601,0.088806 0.3687382,0.098459 0.5135307,0.1621676 0.146723,0.061778 0.2297374,0.1814733 0.083014,0.1196951 0.083014,0.2973072 0,0.173751 -0.10232,0.3281963 -0.1003895,0.1525147 -0.2915155,0.2374596 -0.1911261,0.083014 -0.4324469,0.083014 -0.3996272,0 -0.610059,-0.1660287 Q 4.2195104,3.0100881 4.1615935,2.6838223 Z m 2.8746132,0.3011684 0.050195,0.3069601 q -0.146723,0.030889 -0.262557,0.030889 -0.1891955,0 -0.2934461,-0.059848 Q 6.4261477,3.2031447 6.3836753,3.1066164 6.3412028,3.0081575 6.3412028,2.6954057 V 1.5158297 H 6.086368 V 1.2455504 H 6.3412028 V 0.73781143 L 6.6867742,0.52931026 V 1.2455504 H 7.0362067 V 1.5158297 H 6.6867742 v 1.1988817 q 0,0.1486536 0.017375,0.1911261 0.019306,0.042472 0.059848,0.06757 0.042472,0.025097 0.1196951,0.025097 0.057917,0 0.1525148,-0.013514 z m 1.7433018,-0.3494325 0.3590853,0.044403 q -0.084945,0.3146823 -0.3146823,0.4884333 -0.2297374,0.173751 -0.5868922,0.173751 -0.4498219,0 -0.7143095,-0.276071 -0.2625571,-0.2780016 -0.2625571,-0.7780183 0,-0.5173918 0.2664182,-0.8031156 0.2664182,-0.2857238 0.6911428,-0.2857238 0.4112106,0 0.6718371,0.2799321 0.2606264,0.2799321 0.2606264,0.7876711 0,0.030889 -0.00193,0.092667 H 7.6192381 q 0.019306,0.3378491 0.1911261,0.5173918 0.1718204,0.1795427 0.4285857,0.1795427 0.1911261,0 0.3262657,-0.1003895 0.1351397,-0.1003894 0.2142929,-0.320474 z M 7.6385438,2.0737634 H 8.7833696 Q 8.7602028,1.8150675 8.6520911,1.6857195 8.4860624,1.4849406 8.2215748,1.4849406 q -0.2393902,0 -0.4034884,0.160237 -0.1621676,0.160237 -0.1795426,0.4285858 z M 9.5749013,3.2958119 V 1.2455504 h 0.3108211 v 0.2876544 q 0.096528,-0.1505842 0.2567656,-0.2413208 0.160237,-0.092667 0.364877,-0.092667 0.227807,0 0.372599,0.094598 0.146723,0.094598 0.206571,0.2644876 0.243251,-0.3590853 0.633226,-0.3590853 0.305029,0 0.469127,0.1698898 0.164098,0.1679593 0.164098,0.5193224 V 3.2958119 H 12.007415 V 2.004263 q 0,-0.2085012 -0.03475,-0.2992378 -0.03282,-0.092667 -0.121626,-0.1486536 -0.08881,-0.055986 -0.208501,-0.055986 -0.216224,0 -0.359085,0.1447924 -0.142862,0.1428619 -0.142862,0.4594748 V 3.2958119 H 10.793089 V 1.9637211 q 0,-0.231668 -0.08494,-0.347502 -0.08495,-0.1158339 -0.278002,-0.1158339 -0.146723,0 -0.27221,0.077223 -0.123556,0.077223 -0.1795424,0.2258763 -0.055986,0.1486536 -0.055986,0.4285857 V 3.2958119 Z M 14.20633,3.0429077 q -0.193056,0.1640981 -0.372599,0.231668 -0.177612,0.06757 -0.382252,0.06757 -0.337849,0 -0.519322,-0.1640982 -0.181474,-0.1660287 -0.181474,-0.422794 0,-0.1505842 0.06757,-0.2741404 0.0695,-0.1254868 0.179543,-0.2007789 0.111973,-0.075292 0.250974,-0.1139034 0.10232,-0.027028 0.30889,-0.052125 0.420864,-0.050195 0.619712,-0.1196952 0.0019,-0.071431 0.0019,-0.090737 0,-0.2123623 -0.09846,-0.2992378 -0.133209,-0.1177645 -0.395766,-0.1177645 -0.245182,0 -0.362947,0.086876 -0.115834,0.084945 -0.17182,0.3030989 l -0.33978,-0.046334 q 0.04633,-0.218154 0.152515,-0.3513631 0.106181,-0.1351396 0.30696,-0.2065706 0.200779,-0.073361 0.465266,-0.073361 0.262557,0 0.426655,0.061778 0.164099,0.061778 0.241321,0.1563759 0.07722,0.092667 0.108112,0.2355291 0.01737,0.088806 0.01737,0.320474 v 0.4633359 q 0,0.4845722 0.02124,0.6139202 0.02317,0.1274173 0.08881,0.2451819 H 14.275831 Q 14.221775,3.1877002 14.20633,3.0429077 Z M 14.177372,2.26682 q -0.189196,0.077223 -0.567587,0.1312785 -0.214292,0.030889 -0.303099,0.0695 -0.08881,0.038611 -0.13707,0.1139034 -0.04826,0.073362 -0.04826,0.1640982 0,0.1390008 0.104251,0.2316679 0.106181,0.092667 0.30889,0.092667 0.200779,0 0.357155,-0.086876 0.156376,-0.088806 0.229738,-0.2413208 0.05599,-0.1177645 0.05599,-0.3475019 z m 0.75099,0.4170023 0.34364,-0.054056 q 0.02896,0.2065706 0.160238,0.3166129 0.133209,0.1100423 0.370668,0.1100423 0.23939,0 0.355224,-0.096528 0.115834,-0.098459 0.115834,-0.2297374 0,-0.1177645 -0.10232,-0.1853343 Q 16.100215,2.498488 15.816422,2.427057 15.43417,2.3305287 15.285516,2.2610283 15.138793,2.1895974 15.061571,2.0660411 q -0.07529,-0.1254868 -0.07529,-0.276071 0,-0.1370702 0.06178,-0.2529042 0.06371,-0.1177645 0.17182,-0.1949872 0.08108,-0.059848 0.220085,-0.1003894 0.140931,-0.042472 0.301168,-0.042472 0.241321,0 0.422794,0.0695 0.183404,0.0695 0.270279,0.1891955 0.08688,0.1177645 0.119696,0.3166129 l -0.33978,0.046334 q -0.02317,-0.1583065 -0.13514,-0.2471125 -0.110042,-0.088806 -0.312752,-0.088806 -0.23939,0 -0.34171,0.079153 -0.10232,0.079153 -0.10232,0.1853344 0,0.06757 0.04247,0.1216257 0.04247,0.055986 0.133209,0.092667 0.05213,0.019306 0.30696,0.088806 0.368738,0.098459 0.51353,0.1621676 0.146724,0.061778 0.229738,0.1814733 0.08301,0.1196951 0.08301,0.2973072 0,0.173751 -0.10232,0.3281963 -0.100389,0.1525147 -0.291515,0.2374596 -0.191126,0.083014 -0.432447,0.083014 -0.399627,0 -0.610059,-0.1660287 -0.208501,-0.1660287 -0.266418,-0.4922945 z"
       id="path5"
       style="font-size:3.9538px;line-height:1.25;font-family:Arial;-inkscape-font-specification:Arial;stroke-width:0.0988453"
       aria-label="Sistemas " /><path
       d="M 3.4245844,5.911819 V 3.2927399 H 3.7711747 V 5.911819 Z m 0.9164991,0 V 4.0145052 H 4.6305042 V 4.2842739 Q 4.8395303,3.971628 5.2343574,3.971628 q 0.1715086,0 0.3144324,0.062529 0.1447104,0.060743 0.2161723,0.1607893 0.071462,0.1000467 0.1000467,0.2376109 0.017866,0.089327 0.017866,0.3126458 V 5.911819 H 5.5612957 V 4.7577091 q 0,-0.1965203 -0.037517,-0.2929939 Q 5.4862606,4.3664551 5.3897871,4.3092856 5.2951,4.2503295 5.1664686,4.2503295 q -0.205453,0 -0.355523,0.130418 -0.1482835,0.130418 -0.1482835,0.4948737 V 5.911819 Z m 2.7369913,-0.2876342 0.04645,0.2840611 q -0.1357776,0.028585 -0.2429705,0.028585 -0.1750816,0 -0.2715552,-0.055383 Q 6.5135257,5.8260647 6.4742216,5.7367373 6.4349176,5.6456234 6.4349176,5.3562026 V 4.2646219 H 6.1990933 V 4.0145052 H 6.4349176 V 3.5446431 L 6.7547096,3.3516959 V 4.0145052 H 7.0780748 V 4.2646219 H 6.7547096 v 1.1094462 q 0,0.1375642 0.016079,0.1768682 0.017865,0.039304 0.055383,0.062529 0.039304,0.023225 0.1107659,0.023225 0.053597,0 0.1411373,-0.012506 z M 8.6913273,5.3008196 9.0236252,5.3419102 Q 8.9450171,5.6331175 8.7324179,5.7939068 8.5198187,5.9546961 8.1893074,5.9546961 q -0.4162657,0 -0.6610227,-0.2554763 Q 7.2853142,5.4419569 7.2853142,4.979241 q 0,-0.4787948 0.2465436,-0.7432039 0.2465436,-0.2644091 0.6395841,-0.2644091 0.3805347,0 0.6217186,0.2590495 0.241184,0.2590494 0.241184,0.7289115 0,0.028585 -0.00179,0.085754 H 7.6176121 q 0.017865,0.3126459 0.1768682,0.4787948 0.1590028,0.166149 0.3966136,0.166149 0.1768683,0 0.3019266,-0.0929 0.1250583,-0.0929 0.1983068,-0.296567 z M 7.6354775,4.7809342 H 8.6949004 Q 8.6734618,4.5415368 8.5734152,4.4218381 8.419772,4.2360371 8.175015,4.2360371 q -0.2215319,0 -0.3733885,0.1482835 -0.15007,0.1482835 -0.166149,0.3966136 z M 9.4238122,5.911819 V 4.0145052 h 0.2894207 v 0.2876342 q 0.110766,-0.2018799 0.2036665,-0.2661956 0.094687,-0.064316 0.2072396,-0.064316 0.162576,0 0.330511,0.1036198 l -0.110766,0.2983535 q -0.117912,-0.069675 -0.235824,-0.069675 -0.105406,0 -0.1893741,0.064316 -0.083968,0.062529 -0.1196987,0.1750816 -0.053596,0.1715086 -0.053596,0.3751751 V 5.911819 Z M 11.883889,5.6777812 q -0.178655,0.1518566 -0.344804,0.2143858 -0.164362,0.062529 -0.353737,0.062529 -0.312645,0 -0.480581,-0.1518565 -0.167935,-0.1536431 -0.167935,-0.391254 0,-0.1393507 0.06253,-0.2536898 0.06432,-0.1161256 0.166149,-0.185801 0.10362,-0.069675 0.232251,-0.1054063 0.09469,-0.025012 0.285848,-0.048237 0.389467,-0.04645 0.573481,-0.110766 0.0018,-0.066102 0.0018,-0.083968 0,-0.1965203 -0.09111,-0.2769149 -0.123272,-0.1089794 -0.366242,-0.1089794 -0.226892,0 -0.335871,0.080395 -0.107193,0.078608 -0.159003,0.280488 l -0.314432,-0.042877 q 0.04288,-0.2018799 0.141137,-0.3251517 0.09826,-0.1250584 0.284061,-0.1911606 0.185801,-0.067889 0.430558,-0.067889 0.242971,0 0.394827,0.05717 0.151857,0.05717 0.223319,0.1447103 0.07146,0.085754 0.100046,0.2179589 0.01608,0.082181 0.01608,0.2965669 v 0.4287715 q 0,0.4484235 0.01965,0.5681222 0.02144,0.1179122 0.08218,0.2268916 H 11.948204 Q 11.898181,5.8117723 11.883889,5.6777812 Z M 11.85709,4.959589 q -0.175081,0.071462 -0.525245,0.1214852 -0.198306,0.028585 -0.280488,0.064316 -0.08218,0.035731 -0.126844,0.1054063 -0.04466,0.067889 -0.04466,0.1518565 0,0.1286315 0.09647,0.2143858 0.09826,0.085754 0.285848,0.085754 0.185801,0 0.330511,-0.080395 0.144711,-0.082181 0.2126,-0.2233184 0.05181,-0.1089795 0.05181,-0.3215787 z m 2.061677,0.2572629 0.316219,0.041091 q -0.05181,0.3269382 -0.266196,0.5127392 -0.212599,0.1840144 -0.523458,0.1840144 -0.389468,0 -0.627079,-0.2536898 -0.235824,-0.2554763 -0.235824,-0.730698 0,-0.3072863 0.101833,-0.5377509 0.101834,-0.2304647 0.309073,-0.3448038 0.209026,-0.1161256 0.453783,-0.1161256 0.309073,0 0.505593,0.1572162 0.196521,0.1554297 0.251904,0.4430639 l -0.312646,0.048237 q -0.04466,-0.1911606 -0.159003,-0.2876342 -0.112553,-0.096474 -0.273342,-0.096474 -0.24297,0 -0.394827,0.1750817 -0.151856,0.1732951 -0.151856,0.5502567 0,0.3823213 0.146496,0.5556164 0.146497,0.1732952 0.382322,0.1732952 0.189374,0 0.316219,-0.1161257 0.126845,-0.1161256 0.160789,-0.3573095 z m 1.29346,0.4073329 0.04645,0.2840611 q -0.135778,0.028585 -0.242971,0.028585 -0.175081,0 -0.271555,-0.055383 -0.09647,-0.055383 -0.135778,-0.1447104 -0.0393,-0.091114 -0.0393,-0.3805347 V 4.2646219 H 14.333246 V 4.0145052 H 14.56907 V 3.5446431 l 0.319792,-0.1929472 v 0.6628093 h 0.323365 v 0.2501167 h -0.323365 v 1.1094462 q 0,0.1375642 0.01608,0.1768682 0.01787,0.039304 0.05538,0.062529 0.0393,0.023225 0.110766,0.023225 0.0536,0 0.141137,-0.012506 z M 15.528446,3.6625553 V 3.2927399 h 0.321579 v 0.3698154 z m 0,2.2492637 V 4.0145052 h 0.321579 V 5.911819 Z m 1.338125,0 -0.721766,-1.8973138 h 0.339444 l 0.407333,1.1362444 q 0.0661,0.1840144 0.121486,0.3823212 0.04288,-0.15007 0.119698,-0.3608826 l 0.421626,-1.157683 h 0.330511 L 17.166711,5.911819 Z m 1.182694,-0.9486569 q 0,-0.5270316 0.292994,-0.7807214 0.244757,-0.2108127 0.596707,-0.2108127 0.391254,0 0.639584,0.2572629 0.24833,0.2554764 0.24833,0.707473 0,0.3662423 -0.110766,0.5770549 -0.108979,0.2090261 -0.319792,0.3251517 -0.209026,0.1161256 -0.457356,0.1161256 -0.3984,0 -0.644944,-0.2554763 -0.244757,-0.2554764 -0.244757,-0.7360577 z m 0.330512,0 q 0,0.3644557 0.159002,0.5466836 0.159003,0.1804414 0.400187,0.1804414 0.239397,0 0.3984,-0.1822279 0.159003,-0.1822279 0.159003,-0.5556164 0,-0.3519499 -0.160789,-0.5323913 -0.159003,-0.1822278 -0.396614,-0.1822278 -0.241184,0 -0.400187,0.1804413 -0.159002,0.1804413 -0.159002,0.5448971 z m 1.695434,0.3823212 0.318006,-0.050023 q 0.0268,0.1911606 0.148283,0.2929938 0.123272,0.1018333 0.343017,0.1018333 0.221532,0 0.328725,-0.089327 0.107193,-0.091114 0.107193,-0.2125992 0,-0.1089795 -0.09469,-0.1715086 -0.0661,-0.042877 -0.328725,-0.1089794 -0.353736,-0.089327 -0.4913,-0.1536432 -0.135778,-0.066102 -0.20724,-0.1804413 -0.06968,-0.1161256 -0.06968,-0.2554763 0,-0.1268449 0.05717,-0.2340378 0.05896,-0.1089794 0.159003,-0.1804413 0.07503,-0.055383 0.203666,-0.0929 0.130418,-0.039304 0.278702,-0.039304 0.223318,0 0.391254,0.064316 0.169722,0.064316 0.250116,0.1750816 0.08039,0.1089795 0.110766,0.2929939 l -0.314432,0.042877 q -0.02144,-0.1464969 -0.125058,-0.2286781 -0.101834,-0.082181 -0.289421,-0.082181 -0.221532,0 -0.316219,0.073249 -0.09469,0.073248 -0.09469,0.1715086 0,0.062529 0.0393,0.1125525 0.0393,0.05181 0.123272,0.085754 0.04824,0.017866 0.284061,0.082181 0.341231,0.091114 0.475222,0.15007 0.135777,0.05717 0.212599,0.1679355 0.07682,0.110766 0.07682,0.2751284 0,0.1607893 -0.09469,0.3037131 -0.0929,0.1411373 -0.269768,0.2197454 -0.176869,0.076821 -0.400187,0.076821 -0.369816,0 -0.564549,-0.1536431 -0.192947,-0.1536431 -0.246544,-0.4555697 z"
       id="text1-9"
       style="font-size:3.65885px;line-height:1.25;font-family:Arial;-inkscape-font-specification:Arial;stroke-width:0.0914716"
       aria-label="Interactivos" /><path
       d="m 5.1376242,5.9109787 h 0.3467589 v 1.5139422 q 0,0.3950192 -0.089371,0.6273834 -0.089371,0.2323642 -0.3235225,0.3789324 -0.2323642,0.1447807 -0.6112966,0.1447807 -0.3682079,0 -0.6023595,-0.1269066 Q 3.623682,8.3222042 3.5235866,8.0826904 3.4234913,7.8413891 3.4234913,7.4249209 V 5.9109787 h 0.3467589 v 1.5121548 q 0,0.3413966 0.06256,0.5040516 0.064347,0.1608675 0.2180649,0.2484509 0.1555052,0.087583 0.3789324,0.087583 0.3825072,0 0.5451621,-0.1733795 0.162655,-0.1733794 0.162655,-0.6667065 z M 6.3173194,8.531332 H 6.0188208 V 5.9109787 h 0.321735 v 0.9348191 q 0.2037656,-0.2556006 0.5201384,-0.2556006 0.1751668,0 0.3306721,0.071497 0.1572927,0.069709 0.2573881,0.1984033 0.1018827,0.1269066 0.1590801,0.3074358 0.057197,0.1805291 0.057197,0.386082 0,0.4879649 -0.2413013,0.75429 Q 7.1824292,8.57423 6.8446074,8.57423 q -0.3360344,0 -0.527288,-0.2806244 z m -0.00357,-0.9634177 q 0,0.3413966 0.092946,0.493327 0.1519304,0.248451 0.4111059,0.248451 0.2109152,0 0.364633,-0.1823165 0.1537179,-0.184104 0.1537179,-0.5469496 0,-0.3717828 -0.1483556,-0.548737 -0.1465682,-0.1769543 -0.355696,-0.1769543 -0.2109152,0 -0.3646331,0.1841039 Q 6.3137446,7.2211554 6.3137446,7.5679143 Z M 8.0582635,6.280974 V 5.9109787 H 8.3799986 V 6.280974 Z m 0,2.250358 V 6.6330952 H 8.3799986 V 8.531332 Z m 2.0501675,-0.6953052 0.316373,0.041111 Q 10.372969,8.2042347 10.158479,8.3901261 9.945776,8.57423 9.6347654,8.57423 9.2451085,8.57423 9.0073821,8.3204168 8.771443,8.0648162 8.771443,7.5893633 q 0,-0.3074358 0.1018828,-0.5380125 0.1018828,-0.2305768 0.3092231,-0.3449715 0.2091278,-0.1161821 0.454004,-0.1161821 0.3092231,0 0.5058391,0.1572927 0.196616,0.1555052 0.252026,0.4432794 l -0.312798,0.04826 q -0.04469,-0.1912536 -0.1590804,-0.2877741 -0.1126073,-0.09652 -0.2734748,-0.09652 -0.2430887,0 -0.3950192,0.1751668 -0.1519304,0.1733795 -0.1519304,0.5505245 0,0.3825072 0.1465682,0.5558867 0.1465682,0.1733794 0.3825072,0.1733794 0.1894662,0 0.3163728,-0.1161821 Q 10.07447,8.0773281 10.108431,7.8360268 Z M 11.944108,8.531332 V 8.252495 q -0.221639,0.321735 -0.602359,0.321735 -0.168017,0 -0.314586,-0.064347 -0.14478,-0.064347 -0.216277,-0.1608675 -0.06971,-0.098308 -0.09831,-0.2395139 -0.01966,-0.094733 -0.01966,-0.300286 V 6.6330952 h 0.321735 v 1.0527886 q 0,0.2520258 0.01966,0.3396092 0.03039,0.1269066 0.128694,0.2001907 0.09831,0.071497 0.243089,0.071497 0.144781,0 0.271687,-0.073284 0.126907,-0.075071 0.178742,-0.2019781 0.05362,-0.128694 0.05362,-0.3717828 V 6.6330952 h 0.321735 V 8.531332 Z m 0.672069,-0.9491184 q 0,-0.527288 0.293136,-0.7811012 0.244876,-0.2109152 0.596997,-0.2109152 0.391445,0 0.639896,0.257388 0.248451,0.2556006 0.248451,0.7078171 0,0.3664205 -0.11082,0.5773357 Q 14.174804,8.3418658 13.963889,8.4580479 13.754761,8.57423 13.50631,8.57423 q -0.398593,0 -0.645257,-0.2556006 -0.244876,-0.2556006 -0.244876,-0.7364158 z m 0.330672,0 q 0,0.3646331 0.15908,0.5469496 0.15908,0.1805291 0.400381,0.1805291 0.239514,0 0.398594,-0.1823165 0.159081,-0.1823166 0.159081,-0.5558867 0,-0.3521212 -0.160868,-0.5326503 -0.15908,-0.1823165 -0.396807,-0.1823165 -0.241301,0 -0.400381,0.1805291 -0.15908,0.1805291 -0.15908,0.5451622 z m 1.696258,0.3825072 0.318161,-0.050048 q 0.02681,0.1912536 0.148355,0.2931363 0.123332,0.1018828 0.343184,0.1018828 0.22164,0 0.328885,-0.089371 0.107245,-0.091158 0.107245,-0.2127027 0,-0.1090324 -0.09473,-0.171592 Q 15.72807,7.7931288 15.465319,7.7269944 15.111411,7.6376235 14.97378,7.5732765 14.837936,7.5071421 14.766439,7.3927474 14.69673,7.2765653 14.69673,7.1371468 q 0,-0.1269066 0.0572,-0.2341517 0.05899,-0.1090324 0.15908,-0.1805291 0.07507,-0.05541 0.203766,-0.092946 0.130481,-0.039323 0.278837,-0.039323 0.223427,0 0.391444,0.064347 0.169805,0.064347 0.250239,0.1751668 0.08043,0.1090325 0.11082,0.2931364 l -0.314586,0.042898 q -0.02145,-0.1465682 -0.125119,-0.2287893 -0.101883,-0.082221 -0.289562,-0.082221 -0.221639,0 -0.316372,0.073284 -0.09473,0.073284 -0.09473,0.171592 0,0.06256 0.03932,0.1126073 0.03932,0.051835 0.123331,0.085796 0.04826,0.017874 0.2842,0.082221 0.341396,0.091158 0.475453,0.150143 0.135843,0.057197 0.212702,0.1680172 0.07686,0.1108199 0.07686,0.2752622 0,0.1608675 -0.09473,0.3038609 -0.09295,0.1412059 -0.2699,0.2198523 -0.176954,0.076859 -0.400381,0.076859 -0.369996,0 -0.564824,-0.1537178 Q 14.69673,8.2667943 14.643107,7.9647208 Z"
       id="text1-9-3"
       style="font-size:3.66063px;line-height:1.25;font-family:Arial;-inkscape-font-specification:Arial;stroke-width:0.0915162"
       aria-label="Ubicuos" /></g></svg>
